<svg width="40.000000" height="40.000000" viewBox="0 0 40 40" fill="none" xmlns="http://www.w3.org/2000/svg" xmlns:xlink="http://www.w3.org/1999/xlink">
	<desc>
			Created with Pixso.
	</desc>
	<defs>
		<clipPath id="clip60_433">
			<rect id="Instagram" width="40.000000" height="40.000000" fill="white" fill-opacity="0"/>
		</clipPath>
	</defs>
	<rect id="Instagram" width="40.000000" height="40.000000" fill="#FFFFFF" fill-opacity="0"/>
	<g clip-path="url(#clip60_433)">
		<path id="Vector" d="M28.33 3.33C32.93 3.33 36.66 7.06 36.66 11.66L36.66 28.33C36.66 32.93 32.93 36.66 28.33 36.66L11.66 36.66C7.06 36.66 3.33 32.93 3.33 28.33L3.33 11.66C3.33 7.06 7.06 3.33 11.66 3.33L28.33 3.33Z" stroke="#000000" stroke-opacity="1.000000" stroke-width="4.000000" stroke-linejoin="round"/>
		<path id="Vector" d="M25.98 22.99C25.34 24.24 24.32 25.25 23.06 25.88C21.81 26.51 20.39 26.73 19.01 26.5C17.62 26.28 16.34 25.63 15.35 24.64C14.36 23.65 13.71 22.37 13.49 20.98C13.26 19.6 13.48 18.18 14.11 16.93C14.74 15.67 15.75 14.65 17 14.01C18.24 13.36 19.66 13.12 21.05 13.33C22.46 13.54 23.77 14.2 24.78 15.21C25.79 16.22 26.45 17.53 26.66 18.95C26.87 20.33 26.63 21.75 25.98 22.99Z" stroke="#000000" stroke-opacity="1.000000" stroke-width="4.000000" stroke-linejoin="round"/>
		<path id="Vector" d="M29.16 10.83L29.18 10.83" stroke="#000000" stroke-opacity="1.000000" stroke-width="4.000000" stroke-linejoin="round" stroke-linecap="round"/>
	</g>
</svg>
