<svg width="40.666679" height="34.118652" viewBox="0 0 40.6667 34.1187" fill="none" xmlns="http://www.w3.org/2000/svg" xmlns:xlink="http://www.w3.org/1999/xlink">
	<desc>
			Created with Pixso.
	</desc>
	<defs/>
	<path id="Vector" d="M33.43 4.57C32.42 3.42 31.09 2.6 29.61 2.23C28.12 1.86 26.56 1.95 25.13 2.5C23.7 3.04 22.48 4.01 21.62 5.28C20.76 6.54 20.31 8.04 20.33 9.57L20.33 11.24C17.4 11.31 14.5 10.66 11.88 9.35C9.26 8.03 7.01 6.09 5.33 3.69C5.33 3.69 -1.34 18.69 13.66 25.35C10.23 27.68 6.14 28.85 2 28.69C17 37.02 35.33 28.69 35.33 9.52C35.33 9.06 35.28 8.59 35.2 8.14C36.9 6.46 38.1 4.34 38.66 2.02C37.07 3.15 35.3 4.01 33.43 4.57Z" stroke="#000000" stroke-opacity="1.000000" stroke-width="4.000000" stroke-linejoin="round"/>
</svg>
